PathFileType	4	(X/Y/Z)	/Users/itak/Documents/Research/Walk-IL/dataset/trc/00320_00011.trc
DataRate	CameraRate	NumFrames	NumMarkers	Units	OrigDataRate	OrigDataStartFrame	OrigNumFrames
100.000000	100.000000	4	54	mm	100.000000	67	539
Frame#	Time	RPSI			LPSI			L3			STRN			T10			C7			CLAV			RBAK			LBAK			LSHO			LUPA			LAEL			LAOL			LWTS			LWPS			LFRA			LIFD			LHPS			RSHO			RUPA			RAEL			RAOL			RWTS			RWPS			RFRA			RIFD			RHTS			RHPS			RBHD			LFHD			RFHD			LBHD			LHIP			RHIP			RASI			LASI			LKNE			LTHI			LANK			LTIP			LTOE			LMT1			LMT5			LHEE			RKNE			RTHI			RANK			RTIP			RTOE			RMT1			RMT5			RHEE			LHTS			*53			
		X1	Y1	Z1	X2	Y2	Z2	X3	Y3	Z3	X4	Y4	Z4	X5	Y5	Z5	X6	Y6	Z6	X7	Y7	Z7	X8	Y8	Z8	X9	Y9	Z9	X10	Y10	Z10	X11	Y11	Z11	X12	Y12	Z12	X13	Y13	Z13	X14	Y14	Z14	X15	Y15	Z15	X16	Y16	Z16	X17	Y17	Z17	X18	Y18	Z18	X19	Y19	Z19	X20	Y20	Z20	X21	Y21	Z21	X22	Y22	Z22	X23	Y23	Z23	X24	Y24	Z24	X25	Y25	Z25	X26	Y26	Z26	X27	Y27	Z27	X28	Y28	Z28	X29	Y29	Z29	X30	Y30	Z30	X31	Y31	Z31	X32	Y32	Z32	X33	Y33	Z33	X34	Y34	Z34	X35	Y35	Z35	X36	Y36	Z36	X37	Y37	Z37	X38	Y38	Z38	X39	Y39	Z39	X40	Y40	Z40	X41	Y41	Z41	X42	Y42	Z42	X43	Y43	Z43	X44	Y44	Z44	X45	Y45	Z45	X46	Y46	Z46	X47	Y47	Z47	X48	Y48	Z48	X49	Y49	Z49	X50	Y50	Z50	X51	Y51	Z51	X52	Y52	Z52	X53	Y53	Z53	X54	Y54	Z54	

68	0.67	-1457.039672851562	983.6885986328125	37.51427841186523	-1455.453369140625	984.2557983398438	-91.90462493896484	-1459.745483398438	1037.88427734375	-23.4181957244873	-1237.003784179688	1223.991088867188	-33.22592544555664	-1479.398559570312	1158.388427734375	-34.80086898803711	-1441.58447265625	1407.011108398438	-52.88963317871094	-1283.133422851562	1347.714111328125	-40.08327865600586	-1489.379760742188	1269.046508789062	15.64911651611328	-1445.625244140625	1369.023193359375	-154.6623077392578	-1356.371948242188	1383.79833984375	-205.6819152832031	-1369.22509765625	1262.729248046875	-273.4750671386719	-1342.764892578125	1058.126098632812	-278.7250061035156	-1409.009765625	1043.9599609375	-227.3810119628906	-1247.397827148438	816.11083984375	-225.0804138183594	-1279.95458984375	804.9972534179688	-282.28564453125	-1323.889404296875	954.145263671875	-281.9328002929688	-1233.085083007812	656.9357299804688	-215.2768096923828	-1280.574951171875	734.388916015625	-274.4120483398438	-1388.518920898438	1394.399169921875	113.036018371582	-1401.319091796875	1329.226318359375	177.2198486328125	-1385.451782226562	1062.049682617188	215.8167114257812	-1426.367919921875	1051.66162109375	129.4546661376953	-1264.433837890625	838.1231689453125	174.997802734375	-1303.148559570312	822.19091796875	239.617431640625	-1358.482177734375	995.2176513671875	225.4313507080078	-1243.650146484375	665.9104614257812	191.7157592773438	-1232.971801757812	738.7373657226562	192.0202789306641	-1285.290283203125	738.9788818359375	238.2529144287109	-1430.35546875	1601.025756835938	18.94178581237793	-1243.959594726562	1636.390747070312	-69.92772674560547	-1271.151977539062	1635.51806640625	27.62082862854004	-1416.898315429688	1593.572875976562	-125.0032348632812	-1367.08984375	924.99267578125	-193.3256378173828	-1380.281005859375	926.3646240234375	147.3963470458984	-1274.573608398438	954.0696411132812	106.9492645263672	-1246.890258789062	950.8538208007812	-131.0556945800781	-1335.195190429688	466.1502685546875	-171.15234375	-1328.988647460938	605.8995971679688	-181.8471984863281	-1445.046020507812	50.17952346801758	-154.8070526123047	-1390.543579101562	250.925048828125	-174.6151275634766	-1242.217895507812	46.4119873046875	-88.17727661132812	-1311.458374023438	33.35410690307617	-49.76972198486328	-1318.5400390625	45.38982772827148	-163.2245788574219	-1481.620483398438	46.24697875976562	-88.58916473388672	-1366.7861328125	461.3260192871094	118.4279327392578	-1316.058837890625	716.0197143554688	146.5339508056641	-1451.120727539062	54.60887908935547	83.46399688720703	-1367.345092773438	340.3767700195312	105.2938613891602	-1257.816040039062	46.68611526489258	42.12246322631836	-1309.921752929688	41.02594757080078	-3.836199283599854	-1351.141723632812	41.91896057128906	107.3133163452148	-1500.416625976562	55.56110382080078	34.30447006225586	-1227.388793945312	740.2078247070312	-238.6548919677734	nan	nan	nan	
69	0.68	-1456.94921875	983.7054443359375	37.60043716430664	-1455.371459960938	984.2784423828125	-91.84636688232422	-1459.644897460938	1037.9140625	-23.34069061279297	-1236.925048828125	1223.962890625	-33.20326232910156	-1479.297485351562	1158.364868164062	-34.68357467651367	-1441.5048828125	1406.9951171875	-52.80722045898438	-1283.037231445312	1347.757934570312	-40.06402969360352	-1489.295166015625	1269.022583007812	15.75082111358643	-1445.604125976562	1369.033203125	-154.5745239257812	-1356.37451171875	1383.813110351562	-205.6336822509766	-1369.27685546875	1262.75244140625	-273.4358520507812	-1342.81591796875	1058.151123046875	-278.7326965332031	-1409.04931640625	1043.985107421875	-227.3581390380859	-1247.255615234375	816.1759643554688	-225.1773071289062	-1280.011352539062	805.0083618164062	-282.36865234375	-1323.934814453125	954.1707763671875	-281.9611511230469	-1233.361328125	656.7462158203125	-215.1015167236328	-1280.649047851562	734.3980712890625	-274.5195007324219	-1388.317504882812	1394.39306640625	113.1848831176758	-1401.10693359375	1329.189819335938	177.3061065673828	-1385.236328125	1062.015869140625	215.8284912109375	-1426.263916015625	1051.6787109375	129.5028533935547	-1264.410766601562	837.901611328125	174.8197479248047	-1302.96630859375	822.141357421875	239.5254669189453	-1358.285522460938	995.1912231445312	225.4078216552734	-1243.493286132812	665.8771362304688	191.5652008056641	-1232.821411132812	738.7603759765625	191.9616851806641	-1285.085205078125	738.8513793945312	238.0506896972656	-1430.337280273438	1601.0361328125	19.01213836669922	-1243.952514648438	1636.410766601562	-69.93691253662109	-1271.085693359375	1635.537963867188	27.64123916625977	-1416.880493164062	1593.53515625	-124.8762435913086	-1367.053588867188	925.0090942382812	-193.2965545654297	-1380.207641601562	926.3713989257812	147.378173828125	-1274.479248046875	954.0845336914062	107.0202331542969	-1246.83544921875	950.8380126953125	-131.05322265625	-1335.197509765625	466.1513671875	-171.1549377441406	-1328.936279296875	605.8876953125	-181.8084106445312	-1445.046752929688	50.18228912353516	-154.8037719726562	-1390.551391601562	250.9365997314453	-174.6160583496094	-1242.219970703125	46.41859817504883	-88.17958831787109	-1311.45751953125	33.35428237915039	-49.77219390869141	-1318.538208007812	45.38324737548828	-163.2350006103516	-1481.618896484375	46.24648284912109	-88.5914306640625	-1366.70458984375	461.3146057128906	118.4884185791016	-1315.955688476562	716.0601196289062	146.6004486083984	-1451.12353515625	54.60654449462891	83.46373748779297	-1367.289916992188	340.3807067871094	105.3279800415039	-1257.81494140625	46.68284606933594	42.12490463256836	-1309.92138671875	41.02884292602539	-3.83303427696228	-1351.144653320312	41.91716384887695	107.3329010009766	-1500.408203125	55.56013488769531	34.31621932983398	-1227.599609375	740.236328125	-238.8169860839844	nan	nan	nan	
70	0.6900000000000001	-1456.858276367188	983.7152099609375	37.6873779296875	-1455.289916992188	984.3007202148438	-91.78304290771484	-1459.544799804688	1037.942504882812	-23.26128196716309	-1236.85791015625	1223.925537109375	-33.17568588256836	-1479.183471679688	1158.339233398438	-34.5643424987793	-1441.422241210938	1406.984130859375	-52.72187042236328	-1282.946411132812	1347.800415039062	-40.0379524230957	-1489.204833984375	1268.998413085938	15.85551929473877	-1445.576904296875	1369.045532226562	-154.4860229492188	-1356.376220703125	1383.828491210938	-205.5866394042969	-1369.329833984375	1262.776245117188	-273.3970336914062	-1342.868408203125	1058.17578125	-278.7403259277344	-1409.090087890625	1044.012939453125	-227.3344268798828	-1247.107543945312	816.2423095703125	-225.2690887451172	-1280.068969726562	805.0189208984375	-282.4429626464844	-1323.985717773438	954.1983032226562	-281.9889221191406	-1233.675659179688	656.5546875	-214.9242553710938	-1280.708984375	734.4037475585938	-274.6069946289062	-1388.125610351562	1394.387939453125	113.327751159668	-1400.90283203125	1329.159423828125	177.3832702636719	-1385.02978515625	1061.97802734375	215.8404541015625	-1426.14599609375	1051.693237304688	129.5597534179688	-1264.478881835938	837.5994262695312	174.6366882324219	-1302.789916992188	822.0944213867188	239.4516143798828	-1358.093017578125	995.17041015625	225.3880920410156	-1243.352294921875	665.829345703125	191.4349975585938	-1232.68701171875	738.7719116210938	191.9208221435547	-1284.885620117188	738.7393798828125	237.845947265625	-1430.321533203125	1601.048828125	19.07524299621582	-1243.942626953125	1636.432983398438	-69.94466400146484	-1271.021362304688	1635.557861328125	27.66528511047363	-1416.852172851562	1593.489135742188	-124.7415313720703	-1367.02734375	925.0262451171875	-193.2681732177734	-1380.142822265625	926.3820190429688	147.362060546875	-1274.3798828125	954.1051025390625	107.0875015258789	-1246.787963867188	950.8251953125	-131.0481262207031	-1335.202392578125	466.1526489257812	-171.1555633544922	-1328.9072265625	605.8837890625	-181.7787170410156	-1445.04541015625	50.18621444702148	-154.8021087646484	-1390.5615234375	250.9491119384766	-174.6166839599609	-1242.221801757812	46.42623138427734	-88.18288421630859	-1311.457763671875	33.35372161865234	-49.77424621582031	-1318.5361328125	45.37612152099609	-163.2482147216797	-1481.617065429688	46.245849609375	-88.59412384033203	-1366.597900390625	461.3022155761719	118.5464553833008	-1315.82177734375	716.09619140625	146.6517486572266	-1451.119262695312	54.59936904907227	83.45608520507812	-1367.221435546875	340.3843078613281	105.3612442016602	-1257.810913085938	46.678466796875	42.12634658813477	-1309.921630859375	41.03094863891602	-3.830942869186401	-1351.149291992188	41.91642761230469	107.3499298095703	-1500.396850585938	55.56120300292969	34.32711029052734	-1227.831298828125	740.2529907226562	-238.9805297851562	nan	nan	nan	
71	0.7000000000000001	-1456.767456054688	983.716552734375	37.77286911010742	-1455.21044921875	984.32080078125	-91.71452331542969	-1459.449096679688	1037.969116210938	-23.18413162231445	-1236.802612304688	1223.879516601562	-33.14434432983398	-1479.057861328125	1158.312133789062	-34.44477081298828	-1441.337768554688	1406.978637695312	-52.63532257080078	-1282.864135742188	1347.837646484375	-40.00289154052734	-1489.1103515625	1268.9765625	15.961350440979	-1445.543823242188	1369.0595703125	-154.3980102539062	-1356.375854492188	1383.844116210938	-205.5408020019531	-1369.381713867188	1262.80029296875	-273.3591613769531	-1342.920166015625	1058.19921875	-278.7476806640625	-1409.13037109375	1044.042724609375	-227.3101043701172	-1246.954956054688	816.3070678710938	-225.3566589355469	-1280.125122070312	805.0275268554688	-282.5084533691406	-1324.042114257812	954.2265625	-282.0161743164062	-1234.019287109375	656.3604736328125	-214.7467041015625	-1280.757568359375	734.4063110351562	-274.6766967773438	-1387.947998046875	1394.384033203125	113.4588775634766	-1400.708984375	1329.134887695312	177.4506072998047	-1384.834106445312	1061.937377929688	215.8515625	-1426.014038085938	1051.703491210938	129.6239929199219	-1264.626831054688	837.22705078125	174.4515838623047	-1302.618530273438	822.0496215820312	239.3979187011719	-1357.906494140625	995.153076171875	225.3740844726562	-1243.228637695312	665.7711181640625	191.3230438232422	-1232.557861328125	738.76953125	191.8908843994141	-1284.700073242188	738.6485595703125	237.6490020751953	-1430.30810546875	1601.06298828125	19.13186454772949	-1243.930053710938	1636.457153320312	-69.94959259033203	-1270.957275390625	1635.576782226562	27.69351577758789	-1416.814086914062	1593.436645507812	-124.6000595092773	-1367.013549804688	925.0430908203125	-193.2416381835938	-1380.08544921875	926.3953247070312	147.3491516113281	-1274.276245117188	954.1304931640625	107.1491241455078	-1246.748413085938	950.8125610351562	-131.0401916503906	-1335.20849609375	466.1539306640625	-171.1529388427734	-1328.894897460938	605.8853759765625	-181.7548828125	-1445.041748046875	50.19105529785156	-154.8013916015625	-1390.572998046875	250.9614868164062	-174.6162261962891	-1242.22412109375	46.43439102172852	-88.18688201904297	-1311.458740234375	33.35256576538086	-49.77566909790039	-1318.533203125	45.36921310424805	-163.2622985839844	-1481.615600585938	46.24522018432617	-88.59646606445312	-1366.465087890625	461.2886047363281	118.5974655151367	-1315.674194335938	716.1302490234375	146.6974182128906	-1451.107299804688	54.58724594116211	83.44188690185547	-1367.141845703125	340.3872375488281	105.3931045532227	-1257.802490234375	46.67370986938477	42.12602996826172	-1309.921875	41.03213882446289	-3.829805612564087	-1351.154663085938	41.91646575927734	107.3633804321289	-1500.383422851562	55.56487274169922	34.33730316162109	-1228.071899414062	740.26123046875	-239.1436920166016	nan	nan	nan	
